<svg xmlns="http://www.w3.org/2000/svg" viewBox="0 0 926 680" width="926" height="680" role="img"><title>markdown-RBMK · dosimeter style · @octocat (hybrid mode)</title><desc>2,165 (2165) contributions over 470 days, 247 active days, peak 29 per day, current streak 3 days, longest 9 days, 30-day rate 68% of record; languages: TypeScript 55%, JavaScript 22%, Python 12%, Go 8%, Other 3%.</desc><style>text{font-family:ui-monospace,SFMono-Regular,Menlo,Consolas,monospace}.u{font-size:20px;font-weight:700}.l{font-size:15px;letter-spacing:.06em}.v{font-size:16px;font-weight:700}.s{font-size:13px;letter-spacing:.04em}.a{font-size:14px;letter-spacing:.06em;font-weight:700}.k{font-size:13px;font-weight:700;letter-spacing:.2em}.bt{font-size:12px;letter-spacing:.08em}.e{text-anchor:end}.m{text-anchor:middle}.bd{fill:#1c1d1b;stroke:#4a4c45;stroke-width:2}.hi{fill:#2a2b28}.bn{fill:#2a2b28;stroke:#4a4c45}.sc{fill:#55574f}.sl{stroke:#1c1d1b;stroke-width:1.5}.gr{stroke:#4a4c45;stroke-width:3;stroke-linecap:round}.bz{fill:#bdb8a6}.lcd{fill:#140e05;stroke:#4a3616;stroke-width:2}.ln{fill:none;stroke:#4a3616}.dsh{stroke-dasharray:3 5}.tx,.sg{fill:#ffb547}.dm{fill:#d39a52}.ac,.sa{fill:#ffc861}.gh{fill:#2b1f0d}.gd{fill:#1d1508}.ow{fill:none;stroke:#ffb547;stroke-width:1.5}.rt{fill:none;stroke:#ffc861;stroke-width:2}.rk,.rl{stroke-width:3.5}.rk{stroke:#2b1f0d}.rl{stroke:#ffc861}.gs{stop-color:#ffb547}.ge{stop-color:#ffb547}.ss{stop-color:#ffffff}.se{stop-color:#ffffff}.h0{fill:#2b1f0d}.h1{fill:#6e4c14}.h2{fill:#b07a20}.h3{fill:#f0a534}.h4{fill:#ffe6b3}.g0{fill:#3178c6}.g1{fill:#f1e05a}.g2{fill:#3572A5}.g3{fill:#00ADD8}.g4{fill:#7F8C8D}@keyframes pw{from{opacity:.12}}@keyframes fx{50%{opacity:.62}}@keyframes tk{0%,70%{opacity:1}85%{opacity:.35}}.b0,.b1,.b2,.b3,.b4,.b5{animation:pw .7s ease-out backwards}.b0{animation-delay:0s}.b1{animation-delay:0.2s}.b2{animation-delay:0.4s}.b3{animation-delay:0.6s}.b4{animation-delay:0.8s}.b5{animation-delay:1s}.pp{animation:pw .9s ease-out 1.1s backwards}.d0{animation:fx 5.2s ease-in-out 0s infinite}.d1{animation:fx 6.1s ease-in-out -1.4s infinite}.d2{animation:fx 4.6s ease-in-out -2.2s infinite}.d3{animation:fx 7s ease-in-out -3.3s infinite}.d4{animation:fx 5.7s ease-in-out -4.1s infinite}.d5{animation:fx 6.6s ease-in-out -5.2s infinite}.tk{animation:tk 2.4s ease-in-out infinite}@media (prefers-reduced-motion:reduce){*{animation:none!important}}</style><defs><path id="c" d="M0 0h4.6v4.6h-4.6zM0 5.7h4.6v4.6h-4.6zM0 11.4h4.6v4.6h-4.6zM5.7 0h4.6v4.6h-4.6zM5.7 5.7h4.6v4.6h-4.6zM5.7 11.4h4.6v4.6h-4.6zM11.4 0h4.6v4.6h-4.6zM11.4 5.7h4.6v4.6h-4.6zM11.4 11.4h4.6v4.6h-4.6z"/><rect id="c4" width="16" height="16" rx="1"/><path id="e600" d="M9.4 3.9L13.6 0L24.8 0L28.5 3.9L24.3 7.8L13 7.8ZM29.9 5.5L33.5 9.4L32.5 24.5L28.3 28.4L24.7 24.5L25.7 9.4ZM28.1 31.6L31.7 35.5L30.7 50.6L26.5 54.5L22.9 50.6L23.9 35.5ZM5.7 56.1L9.9 52.2L21.2 52.2L24.8 56.1L20.6 60L9.4 60ZM5.9 31.6L9.5 35.5L8.5 50.6L4.3 54.5L0.7 50.6L1.7 35.5ZM7.7 5.5L11.3 9.4L10.3 24.5L6.1 28.4L2.5 24.5L3.5 9.4ZM7.6 30L11.7 26.1L23 26.1L26.6 30L22.5 33.9L11.2 33.9Z"/><radialGradient id="bl" cx=".35" cy=".4" r=".8"><stop offset="0" class="gs" stop-opacity="0.1"/><stop offset="1" class="ge" stop-opacity="0"/></radialGradient><linearGradient id="sh" x1="0" y1="0" x2=".6" y2="1"><stop offset="0" class="ss" stop-opacity="0.04"/><stop offset=".45" class="se" stop-opacity="0"/></linearGradient></defs><rect class="bd" x="1" y="1" width="924" height="678" rx="26"/><rect class="hi" x="8" y="6" width="910" height="4" rx="2"/><circle class="sc" cx="20" cy="20" r="6"/><path class="sl" d="M16 23L24 17"/><circle class="sc" cx="906" cy="20" r="6"/><path class="sl" d="M902 17L910 23"/><text class="k bz" x="34" y="25">ДОЗИМЕТР ДРБ-01</text><text class="k bz e" x="892" y="25">markdown-RBMK</text><path class="gr" d="M436 13V27M445 13V27M454 13V27M463 13V27M472 13V27M481 13V27M490 13V27"/><rect class="bn" x="319" y="649" width="88" height="22" rx="11"/><text class="bt bz m" x="363" y="664.5">РЕЖИМ</text><rect class="bn" x="419" y="649" width="88" height="22" rx="11"/><text class="bt bz m" x="463" y="664.5">ПОДСВ.</text><rect class="bn" x="519" y="649" width="88" height="22" rx="11"/><text class="bt bz m" x="563" y="664.5">СБРОС</text><rect class="lcd" x="18" y="40" width="890" height="600" rx="10"/><rect x="18" y="40" width="890" height="600" rx="10" fill="url(#bl)"/><path class="ln dsh" d="M618 54V626"/><g transform="translate(18 40)"><path class="rk" d="M37.8 416.7L30.5 420M27 388.7L19.4 391.2M19.3 359.7L11.4 361.3M14.6 330L6.6 330.8M13 300L5 300M14.6 270L6.6 269.2M19.3 240.3L11.4 238.7M27 211.3L19.4 208.8M37.8 183.3L30.5 180M51.5 156.5L44.5 152.5M67.8 131.3L61.3 126.6M86.7 108L80.8 102.6M108 86.7L102.6 80.8M131.3 67.8L126.6 61.3M156.5 51.5L152.5 44.5M183.3 37.8L180 30.5M211.3 27L208.8 19.4M240.3 19.3L238.7 11.4M270 14.6L269.2 6.6"/><path class="rl" d="M300 13L300 5M330 14.6L330.8 6.6M359.7 19.3L361.3 11.4M388.7 27L391.2 19.4M416.7 37.8L420 30.5M443.5 51.5L447.5 44.5M468.7 67.8L473.4 61.3M492 86.7L497.4 80.8M513.3 108L519.2 102.6M532.2 131.3L538.7 126.6M548.5 156.5L555.5 152.5M562.2 183.3L569.5 180M573 211.3L580.6 208.8M580.7 240.3L588.6 238.7M585.4 270L593.4 269.2M587 300L595 300M585.4 330L593.4 330.8M580.7 359.7L588.6 361.3M573 388.7L580.6 391.2M562.2 416.7L569.5 420M548.5 443.5L555.5 447.5M532.2 468.7L538.7 473.4M513.3 492L519.2 497.4M492 513.3L497.4 519.2M468.7 532.2L473.4 538.7M443.5 548.5L447.5 555.5M416.7 562.2L420 569.5M388.7 573L391.2 580.6M359.7 580.7L361.3 588.6M330 585.4L330.8 593.4M300 587L300 595M270 585.4L269.2 593.4M240.3 580.7L238.7 588.6M211.3 573L208.8 580.6M183.3 562.2L180 569.5M156.5 548.5L152.5 555.5M131.3 532.2L126.6 538.7M108 513.3L102.6 519.2M86.7 492L80.8 497.4M67.8 468.7L61.3 473.4M51.5 443.5L44.5 447.5"/><circle class="ln" cx="300" cy="300" r="282"/><g class="b0"><use href="#c" x="281" y="281" class="h2 d1"/><use href="#c" x="303" y="281" class="h1 d1"/><use href="#c" x="281" y="303" class="h3 d3"/><use href="#c" x="303" y="303" class="h0"/><use href="#c" x="281" y="259" class="h0"/><use href="#c" x="303" y="259" class="h1 d4"/><use href="#c" x="259" y="281" class="h0"/><use href="#c" x="325" y="281" class="h0"/><use href="#c" x="259" y="303" class="h0"/><use href="#c" x="325" y="303" class="h1 d3"/><use href="#c" x="281" y="325" class="h0"/><use href="#c" x="303" y="325" class="h0"/></g><g class="b1"><use href="#c4" x="259" y="259" class="h4 d2"/><use href="#c" x="325" y="259" class="h1 d2"/><use href="#c" x="259" y="325" class="h0"/><use href="#c" x="325" y="325" class="h0"/><use href="#c" x="281" y="237" class="h3 d4"/><use href="#c" x="303" y="237" class="h1 d3"/><use href="#c" x="237" y="281" class="h0"/><use href="#c" x="347" y="281" class="h3 d4"/><use href="#c4" x="237" y="303" class="h4 d1"/><use href="#c" x="347" y="303" class="h0"/><use href="#c" x="281" y="347" class="h0"/><use href="#c" x="303" y="347" class="h2 d4"/><use href="#c" x="259" y="237" class="h2 d2"/><use href="#c" x="325" y="237" class="h0"/><use href="#c4" x="237" y="259" class="h4 d2"/><use href="#c" x="347" y="259" class="h3 d2"/><use href="#c4" x="237" y="325" class="h4 d0"/><use href="#c4" x="347" y="325" class="h4 d0"/><use href="#c" x="259" y="347" class="h0"/><use href="#c" x="325" y="347" class="h0"/><use href="#c" x="281" y="215" class="h0"/><use href="#c" x="303" y="215" class="h0"/><use href="#c" x="237" y="237" class="h2 d1"/><use href="#c" x="347" y="237" class="h0"/><use href="#c" x="215" y="281" class="h2 d3"/><use href="#c" x="369" y="281" class="h1 d3"/><use href="#c4" x="215" y="303" class="h4 d4"/><use href="#c" x="369" y="303" class="h0"/><use href="#c" x="237" y="347" class="h1 d0"/><use href="#c4" x="347" y="347" class="h4 d1"/><use href="#c" x="281" y="369" class="h1 d1"/><use href="#c" x="303" y="369" class="h3 d2"/><use href="#c" x="259" y="215" class="h0"/><use href="#c" x="325" y="215" class="h0"/><use href="#c4" x="215" y="259" class="h4 d1"/><use href="#c" x="369" y="259" class="h0"/><use href="#c" x="215" y="325" class="h0"/><use href="#c4" x="369" y="325" class="h4 d5"/><use href="#c" x="259" y="369" class="h0"/><use href="#c" x="325" y="369" class="h0"/></g><g class="b2"><use href="#c" x="237" y="215" class="h2 d3"/><use href="#c" x="347" y="215" class="h1 d3"/><use href="#c" x="215" y="237" class="h1 d5"/><use href="#c" x="369" y="237" class="h1 d1"/><use href="#c" x="215" y="347" class="h0"/><use href="#c" x="369" y="347" class="h0"/><use href="#c" x="237" y="369" class="h1 d4"/><use href="#c" x="347" y="369" class="h0"/><use href="#c" x="281" y="193" class="h0"/><use href="#c4" x="303" y="193" class="h4 d1"/><use href="#c" x="193" y="281" class="h1 d3"/><use href="#c" x="391" y="281" class="h1 d1"/><use href="#c" x="193" y="303" class="h0"/><use href="#c" x="391" y="303" class="h2 d0"/><use href="#c" x="281" y="391" class="h1 d4"/><use href="#c" x="303" y="391" class="h0"/><use href="#c" x="259" y="193" class="h0"/><use href="#c" x="325" y="193" class="h1 d2"/><use href="#c" x="193" y="259" class="h0"/><use href="#c4" x="391" y="259" class="h4 d0"/><use href="#c" x="193" y="325" class="h0"/><use href="#c" x="391" y="325" class="h3 d5"/><use href="#c" x="259" y="391" class="h2 d0"/><use href="#c" x="325" y="391" class="h2 d0"/><use href="#c" x="215" y="215" class="h0"/><use href="#c" x="369" y="215" class="h0"/><use href="#c" x="215" y="369" class="h0"/><use href="#c" x="369" y="369" class="h0"/><use href="#c" x="237" y="193" class="h0"/><use href="#c" x="347" y="193" class="h0"/><use href="#c" x="193" y="237" class="h0"/><use href="#c" x="391" y="237" class="h0"/><use href="#c" x="193" y="347" class="h1 d5"/><use href="#c" x="391" y="347" class="h0"/><use href="#c" x="237" y="391" class="h2 d1"/><use href="#c" x="347" y="391" class="h0"/><use href="#c" x="281" y="171" class="h0"/><use href="#c4" x="303" y="171" class="h4 d0"/><use href="#c" x="171" y="281" class="h1 d4"/><use href="#c" x="413" y="281" class="h0"/><use href="#c" x="171" y="303" class="h2 d5"/><use href="#c" x="413" y="303" class="h2 d3"/><use href="#c4" x="281" y="413" class="h4 d2"/><use href="#c" x="303" y="413" class="h0"/><use href="#c" x="259" y="171" class="h1 d1"/><use href="#c" x="325" y="171" class="h0"/><use href="#c" x="171" y="259" class="h0"/><use href="#c" x="413" y="259" class="h0"/><use href="#c" x="171" y="325" class="h0"/><use href="#c" x="413" y="325" class="h0"/><use href="#c" x="259" y="413" class="h0"/><use href="#c" x="325" y="413" class="h1 d1"/><use href="#c" x="215" y="193" class="h1 d3"/><use href="#c" x="369" y="193" class="h0"/><use href="#c" x="193" y="215" class="h0"/><use href="#c" x="391" y="215" class="h0"/><use href="#c" x="193" y="369" class="h3 d3"/><use href="#c" x="391" y="369" class="h2 d0"/><use href="#c" x="215" y="391" class="h0"/><use href="#c4" x="369" y="391" class="h4 d3"/><use href="#c" x="237" y="171" class="h3 d1"/><use href="#c" x="347" y="171" class="h1 d3"/><use href="#c" x="171" y="237" class="h1 d1"/><use href="#c" x="413" y="237" class="h3 d2"/><use href="#c4" x="171" y="347" class="h4 d5"/><use href="#c" x="413" y="347" class="h2 d4"/><use href="#c" x="237" y="413" class="h1 d5"/><use href="#c" x="347" y="413" class="h1 d2"/></g><g class="b3"><use href="#c" x="193" y="193" class="h0"/><use href="#c4" x="391" y="193" class="h4 d0"/><use href="#c4" x="193" y="391" class="h4 d4"/><use href="#c" x="391" y="391" class="h0"/><use href="#c" x="281" y="149" class="h0"/><use href="#c" x="303" y="149" class="h1 d5"/><use href="#c" x="215" y="171" class="h3 d0"/><use href="#c" x="369" y="171" class="h0"/><use href="#c" x="171" y="215" class="h0"/><use href="#c4" x="413" y="215" class="h4 d0"/><use href="#c" x="149" y="281" class="h0"/><use href="#c" x="435" y="281" class="h1 d5"/><use href="#c" x="149" y="303" class="h0"/><use href="#c" x="435" y="303" class="h3 d2"/><use href="#c" x="171" y="369" class="h3 d2"/><use href="#c" x="413" y="369" class="h0"/><use href="#c4" x="215" y="413" class="h4 d5"/><use href="#c4" x="369" y="413" class="h4 d3"/><use href="#c" x="281" y="435" class="h1 d1"/><use href="#c" x="303" y="435" class="h1 d4"/><use href="#c" x="259" y="149" class="h0"/><use href="#c" x="325" y="149" class="h0"/><use href="#c" x="149" y="259" class="h1 d2"/><use href="#c" x="435" y="259" class="h3 d2"/><use href="#c" x="149" y="325" class="h0"/><use href="#c" x="435" y="325" class="h0"/><use href="#c4" x="259" y="435" class="h4 d1"/><use href="#c" x="325" y="435" class="h2 d4"/><use href="#c" x="237" y="149" class="h2 d1"/><use href="#c" x="347" y="149" class="h0"/><use href="#c" x="149" y="237" class="h2 d5"/><use href="#c" x="435" y="237" class="h0"/><use href="#c" x="149" y="347" class="h0"/><use href="#c" x="435" y="347" class="h0"/><use href="#c" x="237" y="435" class="h2 d4"/><use href="#c" x="347" y="435" class="h0"/><use href="#c4" x="193" y="171" class="h4 d5"/><use href="#c" x="391" y="171" class="h0"/><use href="#c" x="171" y="193" class="h2 d2"/><use href="#c" x="413" y="193" class="h0"/><use href="#c" x="171" y="391" class="h0"/><use href="#c" x="413" y="391" class="h3 d3"/><use href="#c" x="193" y="413" class="h0"/><use href="#c4" x="391" y="413" class="h4 d5"/><use href="#c4" x="215" y="149" class="h4 d1"/><use href="#c" x="369" y="149" class="h0"/><use href="#c" x="149" y="215" class="h0"/><use href="#c" x="435" y="215" class="h0"/><use href="#c" x="149" y="369" class="h0"/><use href="#c" x="435" y="369" class="h3 d1"/><use href="#c" x="215" y="435" class="h2 d4"/><use href="#c" x="369" y="435" class="h0"/><use href="#c" x="281" y="127" class="h2 d4"/><use href="#c" x="303" y="127" class="h0"/><use href="#c" x="127" y="281" class="h0"/><use href="#c" x="457" y="281" class="h0"/><use href="#c" x="127" y="303" class="h3 d4"/><use href="#c" x="457" y="303" class="h0"/><use href="#c" x="281" y="457" class="h0"/><use href="#c" x="303" y="457" class="h3 d4"/><use href="#c" x="259" y="127" class="h0"/><use href="#c" x="325" y="127" class="h3 d2"/><use href="#c" x="127" y="259" class="h1 d2"/><use href="#c" x="457" y="259" class="h0"/><use href="#c4" x="127" y="325" class="h4 d4"/><use href="#c" x="457" y="325" class="h0"/><use href="#c" x="259" y="457" class="h2 d5"/><use href="#c" x="325" y="457" class="h0"/><use href="#c" x="171" y="171" class="h0"/><use href="#c" x="413" y="171" class="h3 d2"/><use href="#c" x="171" y="413" class="h2 d4"/><use href="#c" x="413" y="413" class="h0"/><use href="#c" x="237" y="127" class="h0"/><use href="#c" x="347" y="127" class="h0"/><use href="#c" x="193" y="149" class="h0"/><use href="#c" x="391" y="149" class="h1 d1"/><use href="#c" x="149" y="193" class="h2 d3"/><use href="#c" x="435" y="193" class="h0"/><use href="#c" x="127" y="237" class="h0"/><use href="#c" x="457" y="237" class="h0"/><use href="#c" x="127" y="347" class="h0"/><use href="#c" x="457" y="347" class="h0"/><use href="#c" x="149" y="391" class="h0"/><use href="#c" x="435" y="391" class="h2 d2"/><use href="#c" x="193" y="435" class="h1 d3"/><use href="#c" x="391" y="435" class="h0"/><use href="#c" x="237" y="457" class="h0"/><use href="#c" x="347" y="457" class="h0"/></g><g class="b4"><use href="#c4" x="215" y="127" class="h4 d2"/><use href="#c" x="369" y="127" class="h0"/><use href="#c" x="127" y="215" class="h1 d4"/><use href="#c4" x="457" y="215" class="h4 d2"/><use href="#c" x="127" y="369" class="h3 d4"/><use href="#c" x="457" y="369" class="h0"/><use href="#c" x="215" y="457" class="h3 d2"/><use href="#c" x="369" y="457" class="h1 d5"/><use href="#c" x="281" y="105" class="h3 d0"/><use href="#c" x="303" y="105" class="h3 d4"/><use href="#c" x="171" y="149" class="h0"/><use href="#c" x="413" y="149" class="h1 d1"/><use href="#c" x="149" y="171" class="h0"/><use href="#c" x="435" y="171" class="h0"/><use href="#c" x="105" y="281" class="h0"/><use href="#c" x="479" y="281" class="h2 d5"/><use href="#c4" x="105" y="303" class="h4 d5"/><use href="#c" x="479" y="303" class="h0"/><use href="#c" x="149" y="413" class="h0"/><use href="#c4" x="435" y="413" class="h4 d1"/><use href="#c" x="171" y="435" class="h0"/><use href="#c" x="413" y="435" class="h2 d5"/><use href="#c" x="281" y="479" class="h0"/><use href="#c" x="303" y="479" class="h0"/><use href="#c" x="259" y="105" class="h3 d3"/><use href="#c" x="325" y="105" class="h0"/><use href="#c" x="105" y="259" class="h0"/><use href="#c" x="479" y="259" class="h3 d2"/><use href="#c" x="105" y="325" class="h0"/><use href="#c" x="479" y="325" class="h0"/><use href="#c" x="259" y="479" class="h2 d2"/><use href="#c" x="325" y="479" class="h0"/><use href="#c" x="193" y="127" class="h0"/><use href="#c" x="391" y="127" class="h0"/><use href="#c" x="127" y="193" class="h2 d3"/><use href="#c" x="457" y="193" class="h0"/><use href="#c" x="127" y="391" class="h0"/><use href="#c4" x="457" y="391" class="h4 d3"/><use href="#c4" x="193" y="457" class="h4 d5"/><use href="#c" x="391" y="457" class="h0"/><use href="#c" x="237" y="105" class="h1 d1"/><use href="#c" x="347" y="105" class="h1 d0"/><use href="#c" x="105" y="237" class="h0"/><use href="#c" x="479" y="237" class="h1 d3"/><use href="#c" x="105" y="347" class="h3 d1"/><use href="#c" x="479" y="347" class="h0"/><use href="#c" x="237" y="479" class="h3 d2"/><use href="#c" x="347" y="479" class="h3 d5"/><use href="#c" x="215" y="105" class="h3 d3"/><use href="#c" x="369" y="105" class="h0"/><use href="#c" x="149" y="149" class="h3 d3"/><use href="#c" x="435" y="149" class="h3 d2"/><use href="#c4" x="105" y="215" class="h4 d4"/><use href="#c" x="479" y="215" class="h0"/><use href="#c" x="105" y="369" class="h2 d4"/><use href="#c" x="479" y="369" class="h3 d3"/><use href="#c" x="149" y="435" class="h0"/><use href="#c" x="435" y="435" class="h0"/><use href="#c" x="215" y="479" class="h0"/><use href="#c" x="369" y="479" class="h0"/><use href="#c" x="171" y="127" class="h0"/><use href="#c4" x="413" y="127" class="h4 d2"/><use href="#c" x="127" y="171" class="h0"/><use href="#c" x="457" y="171" class="h3 d5"/><use href="#c" x="127" y="413" class="h0"/><use href="#c4" x="457" y="413" class="h4 d4"/><use href="#c" x="171" y="457" class="h0"/><use href="#c" x="413" y="457" class="h0"/><use href="#c" x="281" y="83" class="h0"/><use href="#c4" x="303" y="83" class="h4 d4"/><use href="#c4" x="83" y="281" class="h4 d0"/><use href="#c" x="501" y="281" class="h0"/><use href="#c4" x="83" y="303" class="h4 d1"/><use href="#c" x="501" y="303" class="h0"/><use href="#c" x="281" y="501" class="h0"/><use href="#c" x="303" y="501" class="h0"/><use href="#c4" x="259" y="83" class="h4 d1"/><use href="#c" x="325" y="83" class="h1 d2"/><use href="#c" x="193" y="105" class="h0"/><use href="#c" x="391" y="105" class="h3 d3"/><use href="#c" x="105" y="193" class="h2 d5"/><use href="#c" x="479" y="193" class="h1 d5"/><use href="#c" x="83" y="259" class="h2 d0"/><use href="#c" x="501" y="259" class="h0"/><use href="#c" x="83" y="325" class="h0"/><use href="#c" x="501" y="325" class="h0"/><use href="#c" x="105" y="391" class="h0"/><use href="#c" x="479" y="391" class="h0"/><use href="#c" x="193" y="479" class="h0"/><use href="#c" x="391" y="479" class="h0"/><use href="#c" x="259" y="501" class="h1 d5"/><use href="#c" x="325" y="501" class="h3 d2"/><use href="#c4" x="237" y="83" class="h4 d0"/><use href="#c" x="347" y="83" class="h0"/><use href="#c" x="83" y="237" class="h0"/><use href="#c" x="501" y="237" class="h2 d1"/><use href="#c" x="83" y="347" class="g0 d5"/><use href="#c" x="501" y="347" class="g0 d2"/><use href="#c" x="237" y="501" class="g0 d0"/><use href="#c" x="347" y="501" class="g0 d3"/><use href="#c" x="149" y="127" class="g0 d3"/><use href="#c" x="435" y="127" class="g0 d4"/><use href="#c" x="127" y="149" class="g0 d3"/><use href="#c" x="457" y="149" class="g0 d4"/><use href="#c" x="127" y="435" class="g0 d5"/><use href="#c" x="457" y="435" class="g0 d3"/><use href="#c" x="149" y="457" class="g0 d0"/><use href="#c" x="435" y="457" class="g0 d2"/><use href="#c" x="171" y="105" class="g0 d4"/><use href="#c" x="413" y="105" class="g0 d3"/><use href="#c" x="105" y="171" class="g0 d1"/><use href="#c" x="479" y="171" class="g0 d4"/><use href="#c" x="105" y="413" class="g0 d5"/><use href="#c" x="479" y="413" class="g0 d4"/><use href="#c" x="171" y="479" class="g0 d5"/><use href="#c" x="413" y="479" class="g0 d2"/><use href="#c" x="215" y="83" class="g0 d4"/><use href="#c" x="369" y="83" class="g0 d2"/><use href="#c" x="83" y="215" class="g0 d5"/><use href="#c" x="501" y="215" class="g0 d2"/><use href="#c" x="83" y="369" class="g0 d3"/><use href="#c" x="501" y="369" class="g0 d1"/><use href="#c" x="215" y="501" class="g0 d1"/><use href="#c" x="369" y="501" class="g0 d2"/></g><g class="b5"><use href="#c" x="281" y="61" class="g0 d3"/><use href="#c" x="303" y="61" class="g0 d3"/><use href="#c" x="61" y="281" class="g0 d0"/><use href="#c" x="523" y="281" class="g0 d1"/><use href="#c" x="61" y="303" class="g0 d2"/><use href="#c" x="523" y="303" class="g0 d5"/><use href="#c" x="281" y="523" class="g0 d0"/><use href="#c" x="303" y="523" class="g0 d2"/><use href="#c" x="193" y="83" class="g0 d2"/><use href="#c" x="391" y="83" class="g0 d1"/><use href="#c" x="83" y="193" class="g0 d4"/><use href="#c" x="501" y="193" class="g0 d0"/><use href="#c" x="83" y="391" class="g0 d1"/><use href="#c" x="501" y="391" class="g0 d0"/><use href="#c" x="193" y="501" class="g0 d0"/><use href="#c" x="391" y="501" class="g0 d2"/><use href="#c" x="259" y="61" class="g0 d4"/><use href="#c" x="325" y="61" class="g0 d0"/><use href="#c" x="127" y="127" class="g0 d2"/><use href="#c" x="457" y="127" class="g0 d0"/><use href="#c" x="61" y="259" class="g0 d5"/><use href="#c" x="523" y="259" class="g0 d3"/><use href="#c" x="61" y="325" class="g0 d3"/><use href="#c" x="523" y="325" class="g0 d2"/><use href="#c" x="127" y="457" class="g0 d5"/><use href="#c" x="457" y="457" class="g0 d2"/><use href="#c" x="259" y="523" class="g0 d0"/><use href="#c" x="325" y="523" class="g0 d4"/><use href="#c" x="149" y="105" class="g0 d3"/><use href="#c" x="435" y="105" class="g0 d2"/><use href="#c" x="105" y="149" class="g0 d4"/><use href="#c" x="479" y="149" class="g0 d5"/><use href="#c" x="105" y="435" class="g0 d0"/><use href="#c" x="479" y="435" class="g0 d0"/><use href="#c" x="149" y="479" class="g0 d2"/><use href="#c" x="435" y="479" class="g0 d1"/><use href="#c" x="237" y="61" class="g0 d3"/><use href="#c" x="347" y="61" class="g0 d0"/><use href="#c" x="61" y="237" class="g0 d3"/><use href="#c" x="523" y="237" class="g0 d1"/><use href="#c" x="61" y="347" class="g0 d1"/><use href="#c" x="523" y="347" class="g0 d5"/><use href="#c" x="237" y="523" class="g0 d4"/><use href="#c" x="347" y="523" class="g0 d1"/><use href="#c" x="171" y="83" class="g0 d5"/><use href="#c" x="413" y="83" class="g0 d3"/><use href="#c" x="83" y="171" class="g0 d2"/><use href="#c" x="501" y="171" class="g0 d2"/><use href="#c" x="83" y="413" class="g0 d0"/><use href="#c" x="501" y="413" class="g0 d4"/><use href="#c" x="171" y="501" class="g0 d0"/><use href="#c" x="413" y="501" class="g0 d5"/><use href="#c" x="215" y="61" class="g0 d3"/><use href="#c" x="369" y="61" class="g0 d2"/><use href="#c" x="61" y="215" class="g0 d5"/><use href="#c" x="523" y="215" class="g0 d4"/><use href="#c" x="61" y="369" class="g0 d2"/><use href="#c" x="523" y="369" class="g0 d3"/><use href="#c" x="215" y="523" class="g0 d4"/><use href="#c" x="369" y="523" class="g0 d4"/><use href="#c" x="127" y="105" class="g0 d3"/><use href="#c" x="457" y="105" class="g0 d2"/><use href="#c" x="105" y="127" class="g1 d1"/><use href="#c" x="479" y="127" class="g1 d0"/><use href="#c" x="105" y="457" class="g1 d5"/><use href="#c" x="479" y="457" class="g1 d3"/><use href="#c" x="127" y="479" class="g1 d3"/><use href="#c" x="457" y="479" class="g1 d4"/><use href="#c" x="193" y="61" class="g1 d5"/><use href="#c" x="391" y="61" class="g1 d4"/><use href="#c" x="61" y="193" class="g1 d2"/><use href="#c" x="523" y="193" class="g1 d5"/><use href="#c" x="61" y="391" class="g1 d5"/><use href="#c" x="523" y="391" class="g1 d3"/><use href="#c" x="193" y="523" class="g1 d1"/><use href="#c" x="391" y="523" class="g1 d3"/><use href="#c" x="281" y="39" class="g1 d3"/><use href="#c" x="303" y="39" class="g1 d3"/><use href="#c" x="149" y="83" class="g1 d1"/><use href="#c" x="435" y="83" class="g1 d0"/><use href="#c" x="83" y="149" class="g1 d5"/><use href="#c" x="501" y="149" class="g1 d5"/><use href="#c" x="39" y="281" class="g1 d3"/><use href="#c" x="545" y="281" class="g1 d5"/><use href="#c" x="39" y="303" class="g1 d3"/><use href="#c" x="545" y="303" class="g1 d4"/><use href="#c" x="83" y="435" class="g1 d3"/><use href="#c" x="501" y="435" class="g1 d3"/><use href="#c" x="149" y="501" class="g1 d4"/><use href="#c" x="435" y="501" class="g1 d4"/><use href="#c" x="281" y="545" class="g1 d4"/><use href="#c" x="303" y="545" class="g1 d1"/><use href="#c" x="259" y="39" class="g1 d4"/><use href="#c" x="325" y="39" class="g1 d5"/><use href="#c" x="39" y="259" class="g1 d2"/><use href="#c" x="545" y="259" class="g1 d2"/><use href="#c" x="39" y="325" class="g1 d0"/><use href="#c" x="545" y="325" class="g1 d2"/><use href="#c" x="259" y="545" class="g2 d1"/><use href="#c" x="325" y="545" class="g2 d3"/><use href="#c" x="237" y="39" class="g2 d4"/><use href="#c" x="347" y="39" class="g2 d3"/><use href="#c" x="39" y="237" class="g2 d3"/><use href="#c" x="545" y="237" class="g2 d4"/><use href="#c" x="39" y="347" class="g2 d1"/><use href="#c" x="545" y="347" class="g2 d2"/><use href="#c" x="237" y="545" class="g2 d4"/><use href="#c" x="347" y="545" class="g2 d2"/><use href="#c" x="171" y="61" class="g2 d4"/><use href="#c" x="413" y="61" class="g2 d3"/><use href="#c" x="61" y="171" class="g2 d0"/><use href="#c" x="523" y="171" class="g2 d0"/><use href="#c" x="61" y="413" class="g2 d1"/><use href="#c" x="523" y="413" class="g2 d2"/><use href="#c" x="171" y="523" class="g2 d0"/><use href="#c" x="413" y="523" class="g2 d5"/><use href="#c" x="215" y="39" class="g2 d0"/><use href="#c" x="369" y="39" class="g2 d3"/><use href="#c" x="39" y="215" class="g3 d4"/><use href="#c" x="545" y="215" class="g3 d2"/><use href="#c" x="39" y="369" class="g3 d2"/><use href="#c" x="545" y="369" class="g3 d0"/><use href="#c" x="215" y="545" class="g3 d0"/><use href="#c" x="369" y="545" class="g3 d3"/><use href="#c" x="105" y="105" class="g3 d2"/><use href="#c" x="479" y="105" class="g3 d5"/><use href="#c" x="105" y="479" class="g3 d2"/><use href="#c" x="479" y="479" class="g3 d5"/><use href="#c" x="127" y="83" class="g3 d0"/><use href="#c" x="457" y="83" class="g3 d1"/><use href="#c" x="83" y="127" class="g3 d4"/><use href="#c" x="501" y="127" class="g4 d4"/><use href="#c" x="83" y="457" class="g4 d2"/><use href="#c" x="501" y="457" class="g4 d3"/><use href="#c" x="127" y="501" class="g4 d2"/><use href="#c" x="457" y="501" class="g4 d0"/></g><path class="rt" d="M255 261V255H261M273 255H279V261M279 273V279H273M261 279H255V273"/><text class="l dm" x="16" y="30">DOSE MAP</text><text class="s dm" x="16" y="54">468 CH · 470 D</text><text class="s dm e" x="584" y="30">RATE 30D</text><text class="v tx e" x="584" y="52">68%</text><text class="s dm" x="16" y="566">MODE</text><text class="v tx" x="16" y="588">HYBRID</text><use href="#c" class="h0" transform="translate(508 548) scale(.75)"/><use href="#c" class="h1" transform="translate(524 548) scale(.75)"/><use href="#c" class="h2" transform="translate(540 548) scale(.75)"/><use href="#c" class="h3" transform="translate(556 548) scale(.75)"/><use href="#c4" class="h4" transform="translate(572 548) scale(.75)"/><text class="s dm" x="508" y="588">LO</text><text class="s dm e" x="584" y="588">HI</text></g><g class="pp" transform="translate(618 40)"><text class="u tx" x="18" y="34">@octocat</text><g class="tk"><path class="ac" d="M184.4 22.2L181.5 17.2A9 9 0 0 1 190.5 17.2L187.6 22.2A3.2 3.2 0 0 0 184.4 22.2ZM189.2 25L195 25A9 9 0 0 1 190.5 32.8L187.6 27.8A3.2 3.2 0 0 0 189.2 25ZM184.4 27.8L181.5 32.8A9 9 0 0 1 177 25L182.8 25A3.2 3.2 0 0 0 184.4 27.8Z"/><circle class="ac" cx="186" cy="25" r="2"/></g><rect class="tx" x="210" y="27" width="5" height="5"/><rect class="tx" x="217" y="24" width="5" height="8"/><rect class="tx" x="224" y="21" width="5" height="11"/><rect class="gh" x="231" y="18" width="5" height="14"/><rect class="ow" x="242" y="18" width="26" height="14" rx="2"/><rect class="tx" x="268" y="22" width="3" height="6"/><rect class="tx" x="245" y="21" width="4" height="8"/><rect class="tx" x="250.5" y="21" width="4" height="8"/><rect class="tx" x="256" y="21" width="4" height="8"/><rect class="gh" x="261.5" y="21" width="4" height="8"/><text class="a dm" x="18" y="60">COMMIT</text><text class="a dm" x="93.4" y="60">LANG</text><rect class="ow" x="145.4" y="45" width="65.4" height="20" rx="3"/><text class="a tx" x="150.4" y="60">HYBRID</text><path class="ln dsh" d="M14 74H276"/><text class="l dm" x="18" y="97">TOTAL · 470 D</text><text class="v tx e" x="272" y="168">CTS</text><g class="gd"><use href="#e600" x="37.2" y="108"/><use href="#e600" x="79.2" y="108"/><use href="#e600" x="121.2" y="108"/><use href="#e600" x="163.2" y="108"/><use href="#e600" x="205.2" y="108"/></g><path class="sa" d="M88.6 111.9L92.8 108L104 108L107.7 111.9L103.5 115.8L92.2 115.8ZM109.1 113.5L112.7 117.4L111.7 132.5L107.5 136.4L103.9 132.5L104.9 117.4ZM86.8 138L90.9 134.1L102.2 134.1L105.8 138L101.7 141.9L90.4 141.9ZM85.1 139.6L88.7 143.5L87.7 158.6L83.5 162.5L79.9 158.6L80.9 143.5ZM84.9 164.1L89.1 160.2L100.4 160.2L104 164.1L99.8 168L88.6 168ZM151.1 113.5L154.7 117.4L153.7 132.5L149.5 136.4L145.9 132.5L146.9 117.4ZM149.3 139.6L152.9 143.5L151.9 158.6L147.7 162.5L144.1 158.6L145.1 143.5ZM172.6 111.9L176.8 108L188 108L191.7 111.9L187.5 115.8L176.2 115.8ZM170.9 113.5L174.5 117.4L173.5 132.5L169.3 136.4L165.7 132.5L166.7 117.4ZM170.8 138L174.9 134.1L186.2 134.1L189.8 138L185.7 141.9L174.4 141.9ZM169.1 139.6L172.7 143.5L171.7 158.6L167.5 162.5L163.9 158.6L164.9 143.5ZM168.9 164.1L173.1 160.2L184.4 160.2L188 164.1L183.8 168L172.6 168ZM191.3 139.6L194.9 143.5L193.9 158.6L189.7 162.5L186.1 158.6L187.1 143.5ZM214.6 111.9L218.8 108L230 108L233.7 111.9L229.5 115.8L218.2 115.8ZM212.9 113.5L216.5 117.4L215.5 132.5L211.3 136.4L207.7 132.5L208.7 117.4ZM212.8 138L216.9 134.1L228.2 134.1L231.8 138L227.7 141.9L216.4 141.9ZM233.3 139.6L236.9 143.5L235.9 158.6L231.7 162.5L228.1 158.6L229.1 143.5ZM210.9 164.1L215.1 160.2L226.4 160.2L230 164.1L225.8 168L214.6 168Z"/><text class="l dm" x="18" y="203">RATE 30D</text><text class="v tx e" x="272" y="204">68%</text><path class="gh" d="M197.9 213h9.9v15h-9.8ZM210.8 213h9.9v15h-9.8ZM223.6 213h9.9v15h-9.8ZM236.5 213h9.9v15h-9.8ZM249.3 213h9.9v15h-9.8ZM262.2 213h9.9v15h-9.8Z"/><path class="ac" d="M18 213h9.9v15h-9.8ZM30.9 213h9.9v15h-9.8ZM43.7 213h9.9v15h-9.8ZM56.6 213h9.9v15h-9.8ZM69.4 213h9.9v15h-9.8ZM82.3 213h9.9v15h-9.8ZM95.1 213h9.9v15h-9.8ZM108 213h9.9v15h-9.8ZM120.8 213h9.9v15h-9.8ZM133.6 213h9.9v15h-9.8ZM146.5 213h9.9v15h-9.8ZM159.4 213h9.9v15h-9.8ZM172.2 213h9.9v15h-9.8ZM185 213h9.9v15h-9.8Z"/><text class="s dm" x="18" y="246">0</text><text class="s dm m" x="145" y="246">50</text><text class="s dm e" x="272" y="246">100</text><text class="l dm" x="18" y="287">ACTIVE</text><text class="l tx e" x="272" y="291">D</text><path class="sg" d="M211.7 267.7L213.5 266L218.4 266L219.9 267.7L218.1 269.4L213.2 269.4ZM220.6 268.4L222.1 270.1L221.7 276.6L219.9 278.3L218.3 276.6L218.8 270.1ZM210.9 279L212.7 277.3L217.6 277.3L219.1 279L217.3 280.7L212.4 280.7ZM210.2 279.7L211.7 281.4L211.3 287.9L209.5 289.6L207.9 287.9L208.3 281.4ZM210.1 290.3L211.9 288.6L216.8 288.6L218.4 290.3L216.5 292L211.7 292ZM229.1 268.4L230.7 270.1L230.3 276.6L228.4 278.3L226.9 276.6L227.3 270.1ZM229.1 279L230.9 277.3L235.8 277.3L237.3 279L235.5 280.7L230.6 280.7ZM238.8 268.4L240.3 270.1L239.9 276.6L238.1 278.3L236.5 276.6L237 270.1ZM238 279.7L239.5 281.4L239.1 287.9L237.3 289.6L235.7 287.9L236.2 281.4ZM248.1 267.7L249.9 266L254.8 266L256.3 267.7L254.5 269.4L249.6 269.4ZM257 268.4L258.5 270.1L258.1 276.6L256.3 278.3L254.7 276.6L255.2 270.1ZM256.2 279.7L257.7 281.4L257.3 287.9L255.5 289.6L253.9 287.9L254.4 281.4Z"/><text class="l dm" x="18" y="331">STREAK</text><text class="l tx e" x="272" y="335">D</text><path class="sg" d="M248.1 311.7L249.9 310L254.8 310L256.3 311.7L254.5 313.4L249.6 313.4ZM257 312.4L258.5 314.1L258.1 320.6L256.3 322.3L254.7 320.6L255.2 314.1ZM247.3 323L249.1 321.3L254 321.3L255.5 323L253.7 324.7L248.8 324.7ZM256.2 323.7L257.7 325.4L257.3 331.9L255.5 333.6L253.9 331.9L254.4 325.4ZM246.5 334.3L248.3 332.6L253.2 332.6L254.8 334.3L252.9 336L248.1 336Z"/><text class="l dm" x="18" y="363">FUEL MIX</text><use href="#c" class="g0" transform="translate(18 377) scale(.7)"/><text class="l tx" x="36" y="388">TypeScript</text><text class="l tx e" x="272" y="388">55%</text><rect class="gh" x="36" y="393" width="236" height="3"/><rect class="g0" x="36" y="393" width="129.8" height="3"/><use href="#c" class="g1" transform="translate(18 405) scale(.7)"/><text class="l tx" x="36" y="416">JavaScript</text><text class="l tx e" x="272" y="416">22%</text><rect class="gh" x="36" y="421" width="236" height="3"/><rect class="g1" x="36" y="421" width="51.9" height="3"/><use href="#c" class="g2" transform="translate(18 433) scale(.7)"/><text class="l tx" x="36" y="444">Python</text><text class="l tx e" x="272" y="444">12%</text><rect class="gh" x="36" y="449" width="236" height="3"/><rect class="g2" x="36" y="449" width="28.3" height="3"/><use href="#c" class="g3" transform="translate(18 461) scale(.7)"/><text class="l tx" x="36" y="472">Go</text><text class="l tx e" x="272" y="472">8%</text><rect class="gh" x="36" y="477" width="236" height="3"/><rect class="g3" x="36" y="477" width="18.9" height="3"/><use href="#c" class="g4" transform="translate(18 489) scale(.7)"/><text class="l tx" x="36" y="500">Other</text><text class="l tx e" x="272" y="500">3%</text><rect class="gh" x="36" y="505" width="236" height="3"/><rect class="g4" x="36" y="505" width="7.1" height="3"/><path class="ln dsh" d="M14 570H276"/><text class="s dm" x="18" y="589">WINDOW 470 D</text><text class="s dm e" x="272" y="589">STATUS NOMINAL</text></g><rect x="21" y="43" width="884" height="594" rx="8" fill="url(#sh)"/></svg>