<svg xmlns="http://www.w3.org/2000/svg" viewBox="0 0 900 600" width="900" height="600" role="img"><title>markdown-RBMK minimal: @octocat (language mode)</title><desc>Top languages: TypeScript 55%, JavaScript 22%, Python 12%, Go 8%, Other 3%.</desc><style>.fg{fill:#e6edf3}.mu{fill:#9198a1}.ac{fill:#4493f8}.acs{fill:none;stroke:#4493f8}.hl{fill:none;stroke:#30363d;stroke-width:1}.h0{fill:#1b2129}.h1{fill:#0e4429}.h2{fill:#006d32}.h3{fill:#26a641}.h4{fill:#39d353}.nd{opacity:.45}.l0{fill:#3178c6}.l1{fill:#f1e05a}.l2{fill:#3572A5}.l3{fill:#00ADD8}.l4{fill:#7F8C8D}text{font-family:ui-monospace,SFMono-Regular,Menlo,Consolas,monospace}.n{font-family:system-ui,-apple-system,'Segoe UI',sans-serif;font-variant-numeric:tabular-nums}.cap{font-size:13px;letter-spacing:1.2px}.t1{font-size:18px;font-weight:600}.big{font-size:48px;font-weight:600;letter-spacing:-1px}.hr{font-size:40px}.mid{font-size:26px;font-weight:500}.sm{font-size:14px}@keyframes on{from{opacity:.05}}@keyframes flux{50%{opacity:.5}}.r0{animation:on .7s 0s ease-out backwards}.r1{animation:on .7s 0.2s ease-out backwards}.r2{animation:on .7s 0.4s ease-out backwards}.r3{animation:on .7s 0.6s ease-out backwards}.r4{animation:on .7s 0.8s ease-out backwards}.r5{animation:on .7s 1s ease-out backwards}.d0{animation:flux 6s 2s ease-in-out infinite}.d1{animation:flux 6s 3s ease-in-out infinite}.d2{animation:flux 6s 4s ease-in-out infinite}.d3{animation:flux 6s 5s ease-in-out infinite}.d4{animation:flux 6s 6s ease-in-out infinite}.d5{animation:flux 6s 7s ease-in-out infinite}.pn{animation:on .9s 1.3s ease-out backwards}@media (prefers-reduced-motion:reduce){*{animation:none!important}}</style><defs><rect id="c" width="16" height="16"/></defs><g><circle class="hl" cx="300" cy="300" r="288" vector-effect="non-scaling-stroke"/><path class="hl" d="M300 4V12M300 588V596M4 300H12M588 300H596" vector-effect="non-scaling-stroke"/><g class="r0"><use href="#c" x="284" y="284" class="l0"/><use href="#c" x="284" y="306" class="l0 d1"/><use href="#c" x="306" y="284" class="l0"/><use href="#c" x="306" y="306" class="l0"/><use href="#c" x="262" y="284" class="l0"/><use href="#c" x="284" y="262" class="l0 d1"/><use href="#c" x="262" y="306" class="l0 d5"/><use href="#c" x="306" y="262" class="l0 d2"/><use href="#c" x="284" y="328" class="l0 d4"/><use href="#c" x="328" y="284" class="l0"/><use href="#c" x="306" y="328" class="l0 d1"/><use href="#c" x="328" y="306" class="l0 d4"/><use href="#c" x="262" y="262" class="l0"/></g><g class="r1"><use href="#c" x="262" y="328" class="l0 d1"/><use href="#c" x="328" y="262" class="l0"/><use href="#c" x="328" y="328" class="l0 d2"/><use href="#c" x="240" y="284" class="l0"/><use href="#c" x="284" y="240" class="l0"/><use href="#c" x="240" y="306" class="l0"/><use href="#c" x="306" y="240" class="l0 d3"/><use href="#c" x="284" y="350" class="l0 d5"/><use href="#c" x="350" y="284" class="l0 d3"/><use href="#c" x="306" y="350" class="l0 d4"/><use href="#c" x="350" y="306" class="l0 d5"/><use href="#c" x="240" y="262" class="l0"/><use href="#c" x="262" y="240" class="l0"/><use href="#c" x="240" y="328" class="l0"/><use href="#c" x="328" y="240" class="l0 d4"/><use href="#c" x="262" y="350" class="l0"/><use href="#c" x="350" y="262" class="l0 d4"/><use href="#c" x="328" y="350" class="l0 d1"/><use href="#c" x="350" y="328" class="l0"/><use href="#c" x="240" y="240" class="l0 d5"/><use href="#c" x="218" y="284" class="l0"/><use href="#c" x="284" y="218" class="l0 d5"/><use href="#c" x="218" y="306" class="l0"/><use href="#c" x="306" y="218" class="l0 d5"/><use href="#c" x="240" y="350" class="l0 d0"/><use href="#c" x="350" y="240" class="l0"/><use href="#c" x="218" y="262" class="l0"/><use href="#c" x="262" y="218" class="l0 d2"/><use href="#c" x="284" y="372" class="l0 d0"/><use href="#c" x="372" y="284" class="l0"/><use href="#c" x="306" y="372" class="l0 d2"/><use href="#c" x="372" y="306" class="l0 d3"/><use href="#c" x="350" y="350" class="l0 d4"/><use href="#c" x="218" y="328" class="l0 d2"/><use href="#c" x="328" y="218" class="l0"/><use href="#c" x="262" y="372" class="l0 d3"/><use href="#c" x="372" y="262" class="l0 d4"/><use href="#c" x="328" y="372" class="l0"/><use href="#c" x="372" y="328" class="l0"/></g><g class="r2"><use href="#c" x="218" y="240" class="l0 d3"/><use href="#c" x="240" y="218" class="l0 d4"/><use href="#c" x="218" y="350" class="l0 d5"/><use href="#c" x="350" y="218" class="l0 d3"/><use href="#c" x="240" y="372" class="l0"/><use href="#c" x="372" y="240" class="l0 d4"/><use href="#c" x="196" y="284" class="l0"/><use href="#c" x="284" y="196" class="l0 d4"/><use href="#c" x="196" y="306" class="l0 d2"/><use href="#c" x="306" y="196" class="l0"/><use href="#c" x="350" y="372" class="l0 d4"/><use href="#c" x="372" y="350" class="l0"/><use href="#c" x="196" y="262" class="l0 d0"/><use href="#c" x="262" y="196" class="l0"/><use href="#c" x="284" y="394" class="l0"/><use href="#c" x="394" y="284" class="l0"/><use href="#c" x="196" y="328" class="l0"/><use href="#c" x="328" y="196" class="l0 d5"/><use href="#c" x="306" y="394" class="l0"/><use href="#c" x="394" y="306" class="l0 d1"/><use href="#c" x="218" y="218" class="l0"/><use href="#c" x="262" y="394" class="l0 d1"/><use href="#c" x="394" y="262" class="l0 d0"/><use href="#c" x="328" y="394" class="l0 d0"/><use href="#c" x="394" y="328" class="l0 d5"/><use href="#c" x="218" y="372" class="l0 d2"/><use href="#c" x="372" y="218" class="l0"/><use href="#c" x="196" y="240" class="l0"/><use href="#c" x="240" y="196" class="l0 d3"/><use href="#c" x="196" y="350" class="l0 d4"/><use href="#c" x="350" y="196" class="l0"/><use href="#c" x="372" y="372" class="l0"/><use href="#c" x="240" y="394" class="l0 d4"/><use href="#c" x="394" y="240" class="l0"/><use href="#c" x="350" y="394" class="l0 d5"/><use href="#c" x="394" y="350" class="l0"/><use href="#c" x="174" y="284" class="l0 d5"/><use href="#c" x="284" y="174" class="l0"/><use href="#c" x="174" y="306" class="l0 d2"/><use href="#c" x="306" y="174" class="l0 d3"/><use href="#c" x="196" y="218" class="l0 d4"/><use href="#c" x="218" y="196" class="l0"/><use href="#c" x="174" y="262" class="l0 d1"/><use href="#c" x="262" y="174" class="l0 d4"/><use href="#c" x="174" y="328" class="l0"/><use href="#c" x="328" y="174" class="l0"/><use href="#c" x="284" y="416" class="l0 d0"/><use href="#c" x="416" y="284" class="l0"/><use href="#c" x="306" y="416" class="l0"/><use href="#c" x="416" y="306" class="l0 d4"/><use href="#c" x="196" y="372" class="l0"/><use href="#c" x="372" y="196" class="l0"/><use href="#c" x="218" y="394" class="l0"/><use href="#c" x="394" y="218" class="l0 d2"/><use href="#c" x="262" y="416" class="l0 d3"/><use href="#c" x="416" y="262" class="l0"/><use href="#c" x="174" y="240" class="l0 d2"/><use href="#c" x="240" y="174" class="l0"/><use href="#c" x="328" y="416" class="l0 d3"/><use href="#c" x="416" y="328" class="l0 d5"/><use href="#c" x="372" y="394" class="l0 d2"/><use href="#c" x="394" y="372" class="l0"/><use href="#c" x="174" y="350" class="l0 d0"/><use href="#c" x="350" y="174" class="l0 d3"/></g><g class="r3"><use href="#c" x="240" y="416" class="l0"/><use href="#c" x="416" y="240" class="l0"/><use href="#c" x="196" y="196" class="l0"/><use href="#c" x="350" y="416" class="l0"/><use href="#c" x="416" y="350" class="l0 d4"/><use href="#c" x="174" y="218" class="l0"/><use href="#c" x="218" y="174" class="l0"/><use href="#c" x="196" y="394" class="l0"/><use href="#c" x="394" y="196" class="l0"/><use href="#c" x="152" y="284" class="l0 d4"/><use href="#c" x="284" y="152" class="l0"/><use href="#c" x="152" y="306" class="l0"/><use href="#c" x="306" y="152" class="l0"/><use href="#c" x="174" y="372" class="l0 d4"/><use href="#c" x="372" y="174" class="l0"/><use href="#c" x="152" y="262" class="l0 d4"/><use href="#c" x="262" y="152" class="l0"/><use href="#c" x="394" y="394" class="l0 d4"/><use href="#c" x="218" y="416" class="l0 d5"/><use href="#c" x="416" y="218" class="l0 d3"/><use href="#c" x="152" y="328" class="l0"/><use href="#c" x="328" y="152" class="l0"/><use href="#c" x="284" y="438" class="l0 d2"/><use href="#c" x="438" y="284" class="l0 d2"/><use href="#c" x="306" y="438" class="l0"/><use href="#c" x="438" y="306" class="l0"/><use href="#c" x="372" y="416" class="l0 d1"/><use href="#c" x="416" y="372" class="l0"/><use href="#c" x="262" y="438" class="l0 d3"/><use href="#c" x="438" y="262" class="l0"/><use href="#c" x="152" y="240" class="l0 d4"/><use href="#c" x="240" y="152" class="l0 d3"/><use href="#c" x="328" y="438" class="l0"/><use href="#c" x="438" y="328" class="l0"/><use href="#c" x="152" y="350" class="l0"/><use href="#c" x="350" y="152" class="l0 d2"/><use href="#c" x="174" y="196" class="l0"/><use href="#c" x="196" y="174" class="l0"/><use href="#c" x="240" y="438" class="l0"/><use href="#c" x="438" y="240" class="l0 d5"/><use href="#c" x="174" y="394" class="l0 d2"/><use href="#c" x="394" y="174" class="l0"/><use href="#c" x="196" y="416" class="l0 d2"/><use href="#c" x="416" y="196" class="l0"/><use href="#c" x="350" y="438" class="l0 d1"/><use href="#c" x="438" y="350" class="l0"/><use href="#c" x="152" y="218" class="l0"/><use href="#c" x="218" y="152" class="l0"/><use href="#c" x="394" y="416" class="l0"/><use href="#c" x="416" y="394" class="l0"/><use href="#c" x="152" y="372" class="l0 d2"/><use href="#c" x="372" y="152" class="l0 d2"/><use href="#c" x="130" y="284" class="l0"/><use href="#c" x="284" y="130" class="l0"/><use href="#c" x="130" y="306" class="l0 d5"/><use href="#c" x="306" y="130" class="l0 d1"/><use href="#c" x="218" y="438" class="l0 d5"/><use href="#c" x="438" y="218" class="l0"/><use href="#c" x="130" y="262" class="l0"/><use href="#c" x="262" y="130" class="l0"/><use href="#c" x="130" y="328" class="l0 d4"/><use href="#c" x="328" y="130" class="l0"/><use href="#c" x="372" y="438" class="l0"/><use href="#c" x="438" y="372" class="l0"/><use href="#c" x="174" y="174" class="l0 d1"/><use href="#c" x="284" y="460" class="l0 d2"/><use href="#c" x="460" y="284" class="l0 d2"/><use href="#c" x="306" y="460" class="l0 d2"/><use href="#c" x="460" y="306" class="l0"/><use href="#c" x="152" y="196" class="l0 d0"/><use href="#c" x="196" y="152" class="l0"/><use href="#c" x="130" y="240" class="l0 d4"/><use href="#c" x="240" y="130" class="l0"/><use href="#c" x="262" y="460" class="l0"/><use href="#c" x="460" y="262" class="l0"/><use href="#c" x="174" y="416" class="l0"/><use href="#c" x="416" y="174" class="l0"/><use href="#c" x="328" y="460" class="l0 d0"/><use href="#c" x="460" y="328" class="l0 d1"/><use href="#c" x="130" y="350" class="l0 d4"/><use href="#c" x="350" y="130" class="l0"/><use href="#c" x="152" y="394" class="l0"/><use href="#c" x="394" y="152" class="l0"/><use href="#c" x="196" y="438" class="l0 d2"/><use href="#c" x="438" y="196" class="l0"/><use href="#c" x="416" y="416" class="l0"/><use href="#c" x="240" y="460" class="l0"/><use href="#c" x="460" y="240" class="l0"/><use href="#c" x="350" y="460" class="l0 d3"/><use href="#c" x="460" y="350" class="l0 d3"/><use href="#c" x="130" y="218" class="l0 d0"/><use href="#c" x="218" y="130" class="l0 d1"/><use href="#c" x="394" y="438" class="l0"/><use href="#c" x="438" y="394" class="l0"/></g><g class="r4"><use href="#c" x="130" y="372" class="l0"/><use href="#c" x="372" y="130" class="l0"/><use href="#c" x="152" y="174" class="l0"/><use href="#c" x="174" y="152" class="l0 d5"/><use href="#c" x="218" y="460" class="l0"/><use href="#c" x="460" y="218" class="l0"/><use href="#c" x="108" y="284" class="l0"/><use href="#c" x="284" y="108" class="l0 d3"/><use href="#c" x="108" y="306" class="l0"/><use href="#c" x="306" y="108" class="l0"/><use href="#c" x="372" y="460" class="l0"/><use href="#c" x="460" y="372" class="l0"/><use href="#c" x="108" y="262" class="l0 d3"/><use href="#c" x="262" y="108" class="l0 d0"/><use href="#c" x="152" y="416" class="l0"/><use href="#c" x="416" y="152" class="l0 d0"/><use href="#c" x="108" y="328" class="l0 d2"/><use href="#c" x="328" y="108" class="l0"/><use href="#c" x="174" y="438" class="l0"/><use href="#c" x="438" y="174" class="l0"/><use href="#c" x="130" y="196" class="l0"/><use href="#c" x="196" y="130" class="l0"/><use href="#c" x="284" y="482" class="l0 d2"/><use href="#c" x="482" y="284" class="l0 d4"/><use href="#c" x="306" y="482" class="l0"/><use href="#c" x="482" y="306" class="l0"/><use href="#c" x="108" y="240" class="l0"/><use href="#c" x="240" y="108" class="l0"/><use href="#c" x="130" y="394" class="l0 d0"/><use href="#c" x="394" y="130" class="l0 d3"/><use href="#c" x="416" y="438" class="l0"/><use href="#c" x="438" y="416" class="l0 d2"/><use href="#c" x="262" y="482" class="l0"/><use href="#c" x="482" y="262" class="l0"/><use href="#c" x="108" y="350" class="l0 d3"/><use href="#c" x="350" y="108" class="l0"/><use href="#c" x="328" y="482" class="l0"/><use href="#c" x="482" y="328" class="l0"/><use href="#c" x="196" y="460" class="l0"/><use href="#c" x="460" y="196" class="l0"/><use href="#c" x="394" y="460" class="l0"/><use href="#c" x="460" y="394" class="l0 d1"/><use href="#c" x="240" y="482" class="l0"/><use href="#c" x="482" y="240" class="l0"/><use href="#c" x="152" y="152" class="l0 d2"/><use href="#c" x="108" y="218" class="l0 d0"/><use href="#c" x="218" y="108" class="l0"/><use href="#c" x="350" y="482" class="l0 d2"/><use href="#c" x="482" y="350" class="l0 d5"/><use href="#c" x="130" y="174" class="l1 d3"/><use href="#c" x="174" y="130" class="l1 d5"/><use href="#c" x="108" y="372" class="l1"/><use href="#c" x="372" y="108" class="l1 d1"/><use href="#c" x="152" y="438" class="l1 d1"/><use href="#c" x="438" y="152" class="l1 d4"/><use href="#c" x="218" y="482" class="l1"/><use href="#c" x="482" y="218" class="l1"/><use href="#c" x="130" y="416" class="l1 d4"/><use href="#c" x="416" y="130" class="l1"/><use href="#c" x="174" y="460" class="l1"/><use href="#c" x="460" y="174" class="l1"/><use href="#c" x="372" y="482" class="l1"/><use href="#c" x="482" y="372" class="l1"/><use href="#c" x="86" y="284" class="l1 d0"/><use href="#c" x="284" y="86" class="l1"/><use href="#c" x="86" y="306" class="l1 d2"/><use href="#c" x="306" y="86" class="l1 d4"/><use href="#c" x="438" y="438" class="l1"/><use href="#c" x="108" y="196" class="l1 d0"/><use href="#c" x="196" y="108" class="l1 d2"/><use href="#c" x="86" y="262" class="l1"/><use href="#c" x="262" y="86" class="l1 d5"/><use href="#c" x="416" y="460" class="l1"/><use href="#c" x="460" y="416" class="l1 d1"/><use href="#c" x="86" y="328" class="l1"/><use href="#c" x="328" y="86" class="l1 d5"/><use href="#c" x="108" y="394" class="l1"/><use href="#c" x="394" y="108" class="l1"/><use href="#c" x="284" y="504" class="l1"/><use href="#c" x="504" y="284" class="l1"/><use href="#c" x="86" y="240" class="l1 d4"/><use href="#c" x="240" y="86" class="l1 d5"/><use href="#c" x="306" y="504" class="l1"/><use href="#c" x="504" y="306" class="l1"/><use href="#c" x="196" y="482" class="l1"/><use href="#c" x="482" y="196" class="l1"/><use href="#c" x="86" y="350" class="l1"/><use href="#c" x="350" y="86" class="l1"/><use href="#c" x="262" y="504" class="l1 d4"/><use href="#c" x="504" y="262" class="l1 d1"/><use href="#c" x="130" y="152" class="l1"/><use href="#c" x="152" y="130" class="l1"/><use href="#c" x="328" y="504" class="l1"/><use href="#c" x="504" y="328" class="l1"/><use href="#c" x="394" y="482" class="l1"/><use href="#c" x="482" y="394" class="l1"/><use href="#c" x="130" y="438" class="l1"/><use href="#c" x="438" y="130" class="l1 d3"/><use href="#c" x="240" y="504" class="l1 d1"/><use href="#c" x="504" y="240" class="l1 d1"/><use href="#c" x="108" y="174" class="l1"/><use href="#c" x="174" y="108" class="l1"/><use href="#c" x="152" y="460" class="l1 d1"/><use href="#c" x="460" y="152" class="l1"/><use href="#c" x="86" y="218" class="l1"/><use href="#c" x="218" y="86" class="l1"/><use href="#c" x="350" y="504" class="l1"/><use href="#c" x="504" y="350" class="l1"/><use href="#c" x="86" y="372" class="l1"/><use href="#c" x="372" y="86" class="l1"/><use href="#c" x="108" y="416" class="l1"/><use href="#c" x="416" y="108" class="l1"/><use href="#c" x="438" y="460" class="l1 d3"/><use href="#c" x="460" y="438" class="l1 d4"/><use href="#c" x="174" y="482" class="l1"/><use href="#c" x="482" y="174" class="l1 d3"/></g><g class="r5"><use href="#c" x="218" y="504" class="l1"/><use href="#c" x="504" y="218" class="l1 d0"/><use href="#c" x="372" y="504" class="l1 d4"/><use href="#c" x="504" y="372" class="l1"/><use href="#c" x="416" y="482" class="l1 d2"/><use href="#c" x="482" y="416" class="l1 d2"/><use href="#c" x="86" y="196" class="l1"/><use href="#c" x="196" y="86" class="l1"/><use href="#c" x="64" y="284" class="l1"/><use href="#c" x="284" y="64" class="l1"/><use href="#c" x="64" y="306" class="l1"/><use href="#c" x="306" y="64" class="l1"/><use href="#c" x="130" y="130" class="l1 d3"/><use href="#c" x="86" y="394" class="l1"/><use href="#c" x="394" y="86" class="l1 d1"/><use href="#c" x="64" y="262" class="l1"/><use href="#c" x="262" y="64" class="l1"/><use href="#c" x="64" y="328" class="l1"/><use href="#c" x="328" y="64" class="l1 d4"/><use href="#c" x="108" y="152" class="l1 d3"/><use href="#c" x="152" y="108" class="l1 d1"/><use href="#c" x="196" y="504" class="l1"/><use href="#c" x="504" y="196" class="l1"/><use href="#c" x="130" y="460" class="l1 d1"/><use href="#c" x="460" y="130" class="l1"/><use href="#c" x="64" y="240" class="l1"/><use href="#c" x="240" y="64" class="l1 d3"/><use href="#c" x="284" y="526" class="l1 d0"/><use href="#c" x="526" y="284" class="l1"/><use href="#c" x="306" y="526" class="l1"/><use href="#c" x="526" y="306" class="l1"/><use href="#c" x="108" y="438" class="l1"/><use href="#c" x="438" y="108" class="l1"/><use href="#c" x="64" y="350" class="l1"/><use href="#c" x="350" y="64" class="l1 d2"/><use href="#c" x="394" y="504" class="l1 d4"/><use href="#c" x="504" y="394" class="l2"/><use href="#c" x="262" y="526" class="l2 d5"/><use href="#c" x="526" y="262" class="l2"/><use href="#c" x="152" y="482" class="l2"/><use href="#c" x="482" y="152" class="l2 d0"/><use href="#c" x="328" y="526" class="l2 d4"/><use href="#c" x="526" y="328" class="l2 d4"/><use href="#c" x="86" y="174" class="l2"/><use href="#c" x="174" y="86" class="l2 d3"/><use href="#c" x="460" y="460" class="l2"/><use href="#c" x="438" y="482" class="l2"/><use href="#c" x="482" y="438" class="l2"/><use href="#c" x="64" y="218" class="l2 d3"/><use href="#c" x="218" y="64" class="l2 d4"/><use href="#c" x="240" y="526" class="l2"/><use href="#c" x="526" y="240" class="l2"/><use href="#c" x="86" y="416" class="l2"/><use href="#c" x="416" y="86" class="l2"/><use href="#c" x="350" y="526" class="l2"/><use href="#c" x="526" y="350" class="l2 d0"/><use href="#c" x="64" y="372" class="l2"/><use href="#c" x="372" y="64" class="l2"/><use href="#c" x="174" y="504" class="l2"/><use href="#c" x="504" y="174" class="l2"/><use href="#c" x="108" y="130" class="l2 d0"/><use href="#c" x="130" y="108" class="l2"/><use href="#c" x="218" y="526" class="l2"/><use href="#c" x="526" y="218" class="l2"/><use href="#c" x="416" y="504" class="l2 d1"/><use href="#c" x="504" y="416" class="l2 d4"/><use href="#c" x="372" y="526" class="l2"/><use href="#c" x="526" y="372" class="l2 d4"/><use href="#c" x="64" y="196" class="l2"/><use href="#c" x="196" y="64" class="l2"/><use href="#c" x="86" y="152" class="l2 d2"/><use href="#c" x="152" y="86" class="l2"/><use href="#c" x="108" y="460" class="l2"/><use href="#c" x="460" y="108" class="l2"/><use href="#c" x="130" y="482" class="l2 d1"/><use href="#c" x="482" y="130" class="l2"/><use href="#c" x="64" y="394" class="l2"/><use href="#c" x="394" y="64" class="l2"/><use href="#c" x="42" y="284" class="l2"/><use href="#c" x="284" y="42" class="l2"/><use href="#c" x="42" y="306" class="l2 d3"/><use href="#c" x="306" y="42" class="l2"/><use href="#c" x="42" y="262" class="l2"/><use href="#c" x="262" y="42" class="l2"/><use href="#c" x="86" y="438" class="l2 d4"/><use href="#c" x="438" y="86" class="l2"/><use href="#c" x="42" y="328" class="l2"/><use href="#c" x="328" y="42" class="l2 d0"/><use href="#c" x="196" y="526" class="l2"/><use href="#c" x="526" y="196" class="l2 d5"/><use href="#c" x="460" y="482" class="l2"/><use href="#c" x="482" y="460" class="l2"/><use href="#c" x="152" y="504" class="l3 d5"/><use href="#c" x="504" y="152" class="l3"/><use href="#c" x="394" y="526" class="l3 d1"/><use href="#c" x="526" y="394" class="l3"/><use href="#c" x="42" y="240" class="l3 d3"/><use href="#c" x="240" y="42" class="l3 d3"/><use href="#c" x="284" y="548" class="l3"/><use href="#c" x="548" y="284" class="l3 d1"/><use href="#c" x="306" y="548" class="l3 d2"/><use href="#c" x="548" y="306" class="l3 d0"/><use href="#c" x="42" y="350" class="l3 d2"/><use href="#c" x="350" y="42" class="l3"/><use href="#c" x="64" y="174" class="l3"/><use href="#c" x="174" y="64" class="l3 d2"/><use href="#c" x="438" y="504" class="l3"/><use href="#c" x="504" y="438" class="l3"/><use href="#c" x="262" y="548" class="l3 d2"/><use href="#c" x="548" y="262" class="l3 d5"/><use href="#c" x="328" y="548" class="l3 d5"/><use href="#c" x="548" y="328" class="l3"/><use href="#c" x="64" y="416" class="l3"/><use href="#c" x="416" y="64" class="l3 d4"/><use href="#c" x="108" y="108" class="l3"/><use href="#c" x="42" y="218" class="l3"/><use href="#c" x="218" y="42" class="l3"/><use href="#c" x="240" y="548" class="l3"/><use href="#c" x="548" y="240" class="l3 d4"/><use href="#c" x="86" y="130" class="l3"/><use href="#c" x="130" y="86" class="l3"/><use href="#c" x="174" y="526" class="l3"/><use href="#c" x="526" y="174" class="l3 d3"/><use href="#c" x="42" y="372" class="l3"/><use href="#c" x="350" y="548" class="l3"/><use href="#c" x="372" y="42" class="l3 d1"/><use href="#c" x="548" y="350" class="l3"/><use href="#c" x="108" y="482" class="l3"/><use href="#c" x="482" y="108" class="l3"/><use href="#c" x="416" y="526" class="l3"/><use href="#c" x="526" y="416" class="l4"/><use href="#c" x="86" y="460" class="l4 d5"/><use href="#c" x="460" y="86" class="l4 d1"/><use href="#c" x="218" y="548" class="l4 d3"/><use href="#c" x="548" y="218" class="l4"/><use href="#c" x="130" y="504" class="l4"/><use href="#c" x="504" y="130" class="l4"/><use href="#c" x="64" y="152" class="l4"/><use href="#c" x="152" y="64" class="l4 d0"/><use href="#c" x="42" y="196" class="l4 d0"/><use href="#c" x="196" y="42" class="l4"/><use href="#c" x="372" y="548" class="l4"/><use href="#c" x="548" y="372" class="l4"/><use href="#c" x="482" y="482" class="l4 d5"/></g></g><g class="pn"><circle class="ac" cx="640" cy="58" r="4"/><text x="652" y="64" class="n fg t1">@octocat</text><text x="636" y="88" class="cap mu">LANGUAGE CORE · 5 LANGS</text><path class="hl" d="M636 112H880" vector-effect="non-scaling-stroke"/><text x="636" y="172" class="n fg big">4</text><text x="636" y="198" class="cap mu">LANGUAGES</text><path class="hl" d="M636 222H880" vector-effect="non-scaling-stroke"/><text x="636" y="252" class="cap mu">LANGUAGES</text><rect class="l0" x="636" y="266" width="129.8" height="8" rx="2"/><rect class="l1" x="767.8" y="266" width="51.9" height="8" rx="2"/><rect class="l2" x="821.7" y="266" width="28.3" height="8" rx="2"/><rect class="l3" x="852" y="266" width="18.9" height="8" rx="2"/><rect class="l4" x="872.9" y="266" width="7.1" height="8" rx="2"/><circle class="l0" cx="641" cy="295" r="5"/><text x="654" y="300" class="n fg sm">TypeScript</text><text x="880" y="300" class="n mu sm" text-anchor="end">55%</text><circle class="l1" cx="641" cy="319" r="5"/><text x="654" y="324" class="n fg sm">JavaScript</text><text x="880" y="324" class="n mu sm" text-anchor="end">22%</text><circle class="l2" cx="641" cy="343" r="5"/><text x="654" y="348" class="n fg sm">Python</text><text x="880" y="348" class="n mu sm" text-anchor="end">12%</text><circle class="l3" cx="641" cy="367" r="5"/><text x="654" y="372" class="n fg sm">Go</text><text x="880" y="372" class="n mu sm" text-anchor="end">8%</text><circle class="l4" cx="641" cy="391" r="5"/><text x="654" y="396" class="n fg sm">Other</text><text x="880" y="396" class="n mu sm" text-anchor="end">3%</text></g></svg>